<?xml version="1.0" encoding="UTF-8"?>
<svg id="Layer_2" xmlns="http://www.w3.org/2000/svg" viewBox="0 0 48.23 44.98">
  <defs>
    <style>
      .cls-1 {
        fill: #fff;
      }
    </style>
  </defs>
  <g id="Layer_1-2" data-name="Layer_1">
    <g>
      <path class="cls-1" d="M22.73,30.08L1.25,17.57c-1.66-.97-1.66-3.37,0-4.34L23.47.34c.81-.47,1.81-.45,2.59.05l20.82,13.11c1.6,1.01,1.55,3.36-.09,4.3l-21.57,12.29c-.78.44-1.73.44-2.5-.01Z"/>
      <path class="cls-1" d="M7.15,25.03l14.3,8.22s2.96,1.41,5.63,0,13.63-8.22,13.63-8.22v14s-5.63,6.44-16,5.93-14.96-2.22-17.56-6.07v-13.85Z"/>
      <path class="cls-1" d="M43.96,23.47v11.53s-1.85.69,0,2.99v2.37s-1.56.96,0,2.52h3.48s1.7-.89,0-2.52v-2.74s1.78-1.38,0-2.61v-13.61l-3.48,2.07Z"/>
    </g>
  </g>
</svg>